# This file uses centimeters as units for non-parametric coordinates.

mtllib ball_gun2.mtl
g default
v 0.113414 0.036851 -0.227127
v 0.000000 0.119251 -0.227127
v -0.113414 0.036850 -0.227127
v 0.000000 -0.119251 -0.227127
v 0.113414 -0.036850 -0.227127
v -0.036850 0.113414 2.493044
v -0.113414 0.036850 2.493044
v -0.113414 -0.036850 2.493044
v 0.000000 -0.119251 2.493044
v 0.070094 -0.096476 2.493044
v 0.113414 0.036851 2.493044
v 0.029451 0.090639 0.231540
v -0.090639 0.029450 0.231540
v 0.029450 -0.090639 0.231540
v 0.090639 0.029450 0.231540
v 0.147270 0.106998 -0.303789
v 0.000000 0.182036 -0.303789
v -0.106998 0.147270 -0.303789
v -0.173126 0.056252 -0.303789
v -0.173126 -0.056252 -0.303789
v -0.106998 -0.147270 -0.303789
v 0.000000 -0.182036 -0.303789
v 0.106998 -0.147270 -0.303789
v 0.173126 -0.056252 -0.303789
v -0.198085 0.205298 -2.693550
v 0.198089 -0.816563 -2.693550
v 0.198087 0.205298 -2.693550
v 0.173128 -0.056253 -1.822711
v 0.106998 -0.147273 -1.822711
v -0.107002 -0.147273 -1.822711
v -0.173128 -0.056253 -1.822711
v -0.106998 0.147273 -1.822711
v 0.106998 0.147273 -1.822711
v 0.173128 0.056253 -1.822711
v 0.198087 0.205298 -1.895617
v -0.198085 0.205298 -1.895617
v -0.198085 -0.208446 -1.895617
v 0.198087 -0.208446 -1.895617
v -0.198087 -0.816563 -2.176254
v -0.198087 -0.816563 -2.693550
v 0.198089 -0.816563 -2.176254
vt 0.217423 0.168836
vt 0.195914 0.153208
vt 0.174405 0.168836
vt 0.195914 0.198441
vt 0.217423 0.182814
vt 0.177821 0.198441
vt 0.185058 0.198441
vt 0.192295 0.198441
vt 0.203151 0.198441
vt 0.210388 0.198441
vt 0.214007 0.198441
vt 0.177821 0.252857
vt 0.186867 0.252857
vt 0.192295 0.252857
vt 0.195914 0.252857
vt 0.203151 0.252857
vt 0.206770 0.252857
vt 0.214007 0.252857
vt 0.209208 0.257040
vt 0.195914 0.252721
vt 0.174405 0.268348
vt 0.174405 0.282326
vt 0.188925 0.296846
vt 0.217423 0.282326
vt 0.182620 0.157528
vt 0.202903 0.296846
vt 0.174405 0.282326
vt 0.202903 0.253827
vt 0.217423 0.282326
vt 0.214211 0.162531
vt 0.195914 0.153208
vt 0.182620 0.157528
vt 0.174405 0.168836
vt 0.174405 0.182814
vt 0.182620 0.194122
vt 0.195914 0.198441
vt 0.209208 0.194122
vt 0.217423 0.182814
vt 0.209208 0.194122
vt 0.209208 0.157528
vt 0.217423 0.182814
vt 0.209208 0.194122
vt 0.182620 0.194122
vt 0.174405 0.182814
vt 0.182620 0.157528
vt 0.209208 0.157528
vt 0.217423 0.168836
vt 0.209208 0.157528
vt 0.182620 0.157528
vt 0.182620 0.194122
vt 0.209208 0.194122
vt 0.182620 0.194122
vt 0.182620 0.194122
vt 0.209208 0.194122
vn 0.888962 0.457955 0.004911
vn 0.804901 0.592553 0.031854
vn -0.004778 0.999989 0.000070
vn 0.008199 0.999365 0.034676
vn -0.999588 0.007371 0.027728
vn -0.891007 0.453990 -0.000000
vn -0.811028 -0.585007 -0.000707
vn -0.302508 -0.952640 0.031084
vn -0.309017 -0.951056 0.000000
vn 0.804791 -0.593530 0.005749
vn 0.819073 -0.572841 0.031178
vn 0.000000 -0.000000 -1.000000
vn 0.000000 -0.000000 -1.000000
vn 0.000000 -0.000000 -1.000000
vn -0.998891 -0.026867 0.038661
vn -0.010624 -0.998112 0.060501
vn -0.008050 0.997337 0.072488
vn 0.996475 -0.002542 0.083853
vn -0.891112 -0.453663 0.010459
vn 0.008914 -0.999908 0.010196
vn 0.891046 -0.453792 0.010458
vn 0.808035 0.588881 0.017279
vn 0.311616 0.950072 0.016078
vn -0.808102 0.588967 0.009500
vn 0.127409 0.734832 0.666175
vn 0.492604 0.504146 0.709350
vn -0.424263 0.583947 0.692103
vn -0.735787 0.239071 0.633610
vn -0.571619 -0.271077 0.774448
vn -0.447565 -0.432452 0.782733
vn 0.000000 -0.773651 0.633612
vn 0.424263 -0.583947 0.692104
vn 0.765439 -0.132463 0.629727
vn 0.960599 0.271739 0.058371
vn 0.716203 0.696579 0.042801
vn 0.302334 0.950383 0.073254
vn -0.721546 0.690735 0.047512
vn -0.582090 0.811343 0.053797
vn -0.998912 -0.011491 0.045206
vn -0.999501 -0.019805 0.024610
vn -0.301699 -0.950073 0.079618
vn 0.999740 -0.013846 0.018111
vn 0.312754 -0.948414 0.051918
vn 0.953072 -0.300813 0.034130
vn 0.808953 0.587738 0.012663
vn 0.986698 -0.162408 0.007152
vn 0.587787 -0.809016 0.000001
vn 0.000000 -0.999998 -0.001963
vn -0.587787 -0.809016 0.000002
vn -0.951057 -0.309016 0.000002
vn -0.951055 0.309015 -0.001964
vn -0.587786 0.809016 0.000001
vn 0.145336 0.989368 0.005251
vn -0.843807 0.536648 0.000001
vn 0.903798 0.427958 0.000001
vn 0.000000 -1.000000 0.000000
vn 0.000000 -1.000000 0.000000
vn 0.000000 -1.000000 0.000000
vn 0.000000 -1.000000 0.000000
vn 1.000000 0.000002 0.000001
vn -1.000000 0.000002 0.000001
vn -1.000000 0.000002 0.000000
vn 0.000000 -0.419019 0.907978
vn 0.000000 -0.419019 0.907978
vn 0.000000 -0.419019 0.907978
vn 0.000000 -0.419019 0.907978
vn 0.000000 -0.000000 -1.000000
vn 1.000000 0.000003 -0.000000
s 1
g pCylinder6
usemtl lambert2SG
f 11/12/1 1/6/2 6/13/3
f 1/6/2 2/7/4 6/13/3
f 2/7/4 3/8/5 6/13/3
f 6/13/3 3/8/5 7/14/6
f 7/14/6 3/8/5 8/15/7
f 3/8/5 4/9/8 8/15/7
f 8/15/7 4/9/8 9/16/9
f 9/16/9 4/9/8 10/17/10
f 4/9/8 5/10/11 10/17/10
f 10/17/10 5/10/11 11/18/1
f 5/10/11 1/11/2 11/18/1
s 2
f 27/40/12 26/39/13 25/25/14
s 3
f 15/29/15 12/26/16 14/28/17
f 12/26/16 13/27/18 14/28/17
f 11/24/19 6/23/20 15/29/15
f 15/29/15 6/23/20 12/26/16
f 12/26/16 6/23/20 13/27/18
f 6/23/20 7/22/21 13/27/18
f 7/22/21 8/21/22 13/27/18
f 13/27/18 8/21/22 14/28/17
f 8/21/22 9/20/23 14/28/17
f 9/20/23 10/19/24 14/28/17
f 14/28/17 10/19/24 15/29/15
f 10/19/24 11/24/19 15/29/15
s 1
f 2/2/4 1/1/2 17/31/25
f 17/31/25 1/1/2 16/30/26
f 18/32/27 2/2/4 17/31/25
f 3/3/5 2/2/4 18/32/27
f 19/33/28 3/3/5 18/32/27
f 20/34/29 3/3/5 19/33/28
f 21/35/30 3/3/5 20/34/29
f 4/4/8 3/3/5 21/35/30
f 22/36/31 4/4/8 21/35/30
f 23/37/32 4/4/8 22/36/31
f 5/5/11 4/4/8 23/37/32
f 24/38/33 5/5/11 23/37/32
f 1/1/2 5/5/11 16/30/26
f 16/30/26 5/5/11 24/38/33
s 4
f 34/47/34 35/48/35 33/46/36
f 36/49/37 33/46/36 35/48/35
f 33/46/36 36/49/37 32/45/38
f 31/44/39 32/45/38 36/49/37
f 37/50/40 31/44/39 36/49/37
f 31/44/39 37/50/40 30/43/41
f 38/51/42 30/43/41 37/50/40
f 30/43/41 38/51/42 29/42/43
f 28/41/44 29/42/43 38/51/42
f 28/41/44 38/51/42 34/47/34
f 34/47/34 38/51/42 35/48/35
f 16/30/45 24/38/46 34/47/34
f 34/47/34 24/38/46 28/41/44
f 28/41/44 24/38/46 29/42/43
f 24/38/46 23/37/47 29/42/43
f 23/37/47 22/36/48 29/42/43
f 29/42/43 22/36/48 30/43/41
f 22/36/48 21/35/49 30/43/41
f 30/43/41 21/35/49 31/44/39
f 21/35/49 20/34/50 31/44/39
f 20/34/50 19/33/51 31/44/39
f 31/44/39 19/33/51 32/45/38
f 19/33/51 18/32/52 32/45/38
f 18/32/52 17/31/53 32/45/38
f 32/45/38 17/31/53 33/46/36
f 17/31/53 16/30/45 33/46/36
f 33/46/36 16/30/45 34/47/34
f 25/25/54 35/48/35 27/40/55
f 36/49/37 35/48/35 25/25/54
f 37/50/40 36/49/37 25/25/54
s 5
f 41/54/56 39/52/57 26/39/58
f 26/39/58 39/52/57 40/53/59
s 4
f 27/40/55 38/51/42 26/39/60
f 35/48/35 38/51/42 27/40/55
f 37/50/40 25/25/54 39/52/61
f 39/52/61 25/25/54 40/53/62
s 6
f 38/51/63 37/50/64 41/54/65
f 41/54/65 37/50/64 39/52/66
s 2
f 40/53/67 25/25/14 26/39/13
s 4
f 38/51/42 41/54/68 26/39/60
