# This file uses centimeters as units for non-parametric coordinates.

mtllib ball_arm3.mtl
g default
v -0.106353 -0.478498 0.532084
v -0.141934 -0.466937 -0.349338
v 0.017505 -0.351097 -0.349338
v 0.147739 -0.515779 -0.349338
v 0.081600 -0.606960 -0.720419
v -0.112727 -0.515779 -0.349338
v -0.141934 -0.466937 -0.540378
v 0.185150 -0.515779 -0.349338
v -0.112728 -0.713382 -0.349338
v 0.147739 -0.770104 -0.540378
v -0.112728 -0.770104 -0.540378
v 0.018143 -0.770104 -0.540378
v 0.018143 -0.713382 -0.349338
v 0.016867 -0.770104 -0.540378
v 0.147739 -0.713382 0.301542
v 0.018143 -0.770104 0.279360
v 0.240001 -0.770104 0.301542
v 0.016866 -0.770104 0.279360
v -0.204991 -0.770104 0.301542
v -0.112729 -0.713382 0.301542
v 0.240001 -0.770104 0.743981
v 0.018143 -0.770104 0.743981
v -0.204991 -0.770104 0.743981
v 0.016866 -0.770104 0.743981
v 0.147739 -0.500546 0.873639
v -0.112729 -0.500546 0.873639
v -0.204991 -0.023129 0.301002
v 0.240001 -0.023129 0.301002
v 0.147739 -0.023129 0.550034
v -0.112729 -0.023129 0.550034
v -0.072706 -0.016793 0.486211
v 0.096367 -0.016793 0.541147
v 0.096367 -0.533972 0.486211
v 0.130451 0.847920 0.600971
v 0.116403 0.575691 0.479700
v 0.158435 0.808616 0.600971
v -0.107908 0.761777 0.552584
v 0.130451 0.847920 0.377851
v 0.158435 1.094359 0.600971
v -0.135157 1.094359 0.465692
v -0.096564 1.020608 0.655317
v 0.130902 1.214819 0.458032
v 0.123431 1.143978 0.529994
v 0.130902 0.904861 0.607054
v -0.104036 1.214819 0.458032
v 0.123431 1.331418 0.671418
v 0.123431 1.164307 0.829118
vt 0.120107 0.690376
vt 0.182720 0.690376
vt 0.182720 0.742998
vt 0.120107 0.742998
vt 0.132630 0.742998
vt 0.148283 0.742998
vt 0.157675 0.784530
vt 0.179589 0.742998
vt 0.182720 0.765853
vt 0.120107 0.765853
vt 0.148283 0.742998
vt 0.179589 0.742998
vt 0.148283 0.765853
vt 0.179589 0.765853
vt 0.148283 0.765853
vt 0.148283 0.742998
vt 0.179589 0.765853
vt 0.148283 0.742998
vt 0.148283 0.742998
vt 0.148283 0.742998
vt 0.179589 0.742998
vt 0.179589 0.742998
vt 0.179589 0.742998
vt 0.148283 0.742998
vt 0.148283 0.742998
vt 0.179589 0.742998
vt 0.179589 0.742998
vt 0.148283 0.742998
vt 0.179589 0.742998
vt 0.179589 0.742998
vt 0.148283 0.742998
vt 0.148283 0.742998
vt 0.179589 0.742998
vt 0.145152 0.784530
vt 0.176459 0.784530
vt 0.182720 0.690376
vt 0.183073 0.846429
vt 0.119754 0.800426
vt 0.114196 0.835521
vt 0.114196 0.811335
vt 0.119754 0.800426
vt 0.188631 0.835521
vt 0.114196 0.835521
vt 0.188631 0.811335
vt 0.114196 0.811335
vt 0.183073 0.800426
vt 0.188631 0.835521
vt 0.183073 0.800426
vt 0.112281 0.823428
vt 0.114196 0.835521
vt 0.183073 0.800426
vt 0.183073 0.846429
vt 0.120107 0.706029
vt 0.182720 0.737335
vt 0.182720 0.737335
vt 0.182720 0.862561
vt 0.214026 0.674723
vt 0.182720 0.612110
vt 0.245332 0.674723
vt 0.182720 0.674723
vt 0.120107 0.862561
vt 0.182720 0.706029
vt 0.120107 0.737335
vn -0.941044 0.338284 0.000000
vn 0.308253 0.852942 -0.421272
vn -0.477817 0.755885 -0.447581
vn 0.705524 0.547036 -0.450542
vn 0.775863 0.527484 -0.346116
vn -0.118190 -0.991018 0.062570
vn -0.449881 -0.892614 0.029110
vn -0.591545 -0.798223 -0.113642
vn -0.994529 -0.102587 0.019703
vn -0.783037 0.620704 0.039750
vn 0.391533 0.285773 0.874663
vn 0.217633 0.961198 0.169513
vn 0.806775 -0.532946 0.255115
vn 0.000000 0.000000 1.000000
vn 0.438784 -0.443397 0.781580
vn 0.000000 -0.487357 0.873203
vn 0.634483 -0.000002 0.772937
vn 0.000010 -0.000001 1.000000
vn 0.823727 -0.000002 0.566987
vn -0.825337 0.541285 -0.160713
vn -0.908332 0.400950 -0.119046
vn -0.972910 0.221624 -0.065802
vn 0.955806 0.073274 -0.284721
vn 0.660637 -0.450871 0.600228
vn 0.885707 0.463940 -0.016795
vn 0.885708 0.463940 -0.016795
vn 0.885708 0.463940 -0.016795
vn -0.994989 -0.095853 0.028460
vn -0.906662 0.417718 0.058956
vn -0.906662 0.417718 0.058956
vn -0.906662 0.417718 0.058956
vn 0.000001 -0.741027 -0.671476
vn 0.000001 -0.741027 -0.671476
vn 0.000001 -0.741027 -0.671476
vn 0.675366 -0.442930 0.589656
vn 0.827555 -0.000002 0.561385
vn 0.000000 0.000000 -1.000000
vn 0.000000 0.000000 -1.000000
vn 0.000000 0.000000 -1.000000
vn 0.319867 0.945320 -0.063688
vn 0.275409 0.959762 -0.054836
vn -0.293666 0.954118 0.058471
vn -1.000000 0.000000 0.000000
vn 0.000000 -1.000000 0.000000
vn 0.000000 -1.000000 0.000000
vn 0.000000 -1.000000 0.000000
vn 0.000000 -1.000000 0.000000
vn 0.522869 0.850485 -0.057299
vn 0.522870 0.850485 -0.057299
vn 0.522870 0.850485 -0.057299
vn 0.400963 0.916094 0.000000
vn 0.400963 0.916094 0.000000
vn 0.400962 0.916095 0.000001
vn -0.916101 0.389303 -0.095933
vn -0.933220 0.344445 -0.102269
vn -0.547411 0.836851 -0.004668
vn -0.000001 -1.000000 0.000000
vn -0.000002 -1.000000 0.000000
vn -0.000002 -1.000000 0.000000
vn -0.000002 -1.000000 0.000000
vn -0.411346 0.907792 0.081902
vn 0.400962 0.916095 0.000001
vn -0.523728 0.851885 -0.000001
vn -0.421462 0.884233 0.201249
vn -0.251476 0.960386 0.120080
vn -0.054231 0.998193 0.025895
vn -0.000000 1.000000 0.000000
vn 0.000000 -1.000000 0.000000
vn 0.000000 -1.000000 0.000000
vn 0.000000 -1.000000 0.000000
vn 0.400962 0.916095 0.000000
vn 0.269874 0.961878 0.044266
vn 0.055788 0.992268 0.110871
vn 0.000002 0.991882 0.127161
vn -0.000002 -1.000000 -0.000000
vn -0.000002 -1.000000 0.000000
vn -0.000002 -1.000000 -0.000000
vn 0.000000 -1.000000 0.000000
vn -0.000002 -1.000000 -0.000000
vn -0.998520 -0.044576 -0.031149
vn -0.913697 -0.380892 0.141702
vn -0.996664 -0.076492 0.028457
vn 1.000000 0.000000 0.000000
vn 0.981188 0.104099 0.162583
vn 0.989707 0.072996 0.123090
vn 0.935674 0.181873 0.302385
vn -0.000439 -0.000722 -1.000000
vn -0.000439 -0.000722 -1.000000
vn -0.000439 -0.000722 -1.000000
vn 0.913696 -0.380894 0.141703
vn 0.998520 -0.044576 -0.031149
vn 0.996664 -0.076493 0.028457
vn 0.000443 -0.000722 -1.000000
vn 0.000443 -0.000722 -1.000000
vn 0.000443 -0.000722 -1.000000
vn -1.000000 0.000000 -0.000000
vn -0.989707 0.072997 0.123090
vn -0.981188 0.104099 0.162583
vn -0.935674 0.181874 0.302385
vn -0.987833 0.052678 -0.146327
vn -0.930465 0.124100 -0.344722
vn 0.912749 0.229212 0.338158
vn 0.987833 0.052678 -0.146327
vn 0.930465 0.124100 -0.344722
vn -0.912749 0.229212 0.338158
vn -0.280646 0.139424 0.949631
vn -0.311093 -0.036239 -0.949688
vn 0.200453 -0.076444 0.976716
vn -0.499325 -0.280881 -0.819622
vn 0.227239 -0.351509 -0.908187
vn 0.056692 -0.361578 -0.930617
vn 0.949392 -0.237672 0.205344
vn -0.141778 -0.100944 0.984738
vn -0.045954 -0.093244 0.994582
vn 0.098495 -0.015320 -0.995020
vn -0.593213 -0.160934 0.788796
vn -0.993615 0.112826 0.000000
vn -0.993615 0.112826 0.000000
vn -0.993615 0.112826 0.000000
vn 0.000000 0.000000 1.000000
vn -0.270559 0.222539 0.936629
vn -0.270559 0.222539 0.936629
vn -0.270559 0.222539 0.936629
vn 0.680159 0.733065 -0.000000
vn 0.680159 0.733065 -0.000000
vn 0.680159 0.733065 -0.000000
vn -0.509498 -0.256346 -0.821400
vn -0.509498 -0.256346 -0.821400
vn -0.509498 -0.256346 -0.821400
vn 0.992227 0.000000 -0.124445
vn 0.992227 0.000000 -0.124445
vn 0.992227 0.000000 -0.124445
vn -0.176601 -0.532003 -0.828121
vn 0.000000 -0.433303 -0.901248
vn -0.242520 -0.563502 -0.789715
vn 0.976907 0.092582 0.192564
vn 0.976907 0.092582 0.192564
vn 0.976907 0.092582 0.192564
vn -0.457346 -0.642338 -0.615009
vn -0.000002 0.712637 0.701533
vn -0.000002 0.712637 0.701533
vn -0.000002 0.712637 0.701533
vn -0.402831 -0.551266 0.730639
vn -0.402830 -0.551266 0.730639
vn -0.402831 -0.551266 0.730639
vn 0.997227 -0.044825 0.059409
vn 0.997227 -0.044825 0.059409
vn 0.997227 -0.044825 0.059409
vn 0.000000 0.877537 -0.479509
vn 0.000000 0.877537 -0.479509
vn 0.000000 0.877537 -0.479509
vn -0.169187 -0.643685 0.746355
vn -0.169187 -0.643685 0.746355
vn -0.169187 -0.643685 0.746355
vn 0.999531 0.030561 -0.002077
vn 0.999531 0.030561 -0.002077
vn 0.999531 0.030561 -0.002077
vn -0.513308 0.856229 -0.058192
vn -0.513308 0.856229 -0.058192
vn -0.513308 0.856229 -0.058192
s 1
g pCylinder7
usemtl lambert2SG
f 2/4/1 3/5/2 7/10/3
f 7/10/3 3/5/2 5/7/4
f 3/5/2 8/11/5 5/7/4
s 2
f 5/7/6 6/8/7 7/9/8
s 1
f 9/12/9 2/3/1 7/9/3
s 2
f 2/4/10 1/1/11 3/5/12
f 3/5/12 1/1/11 4/6/13
f 4/6/13 1/2/11 5/7/6
f 5/7/6 1/2/11 6/8/7
f 6/8/7 1/2/11 2/3/10
s 4
f 3/5/14 4/6/15 8/11/16
s 5
f 6/8/17 2/3/18 9/12/19
s 6
f 4/6/20 12/15/21 13/16/22
s 1
f 5/7/4 8/11/5 10/13/23
s 4
f 8/11/16 4/6/15 10/13/24
s off
f 7/9/25 6/8/26 14/17/27
s 1
f 9/12/9 7/9/3 11/14/28
s off
f 4/6/29 5/7/30 12/15/31
f 5/7/32 10/13/33 12/15/34
s 4
f 10/13/24 4/6/15 13/16/35
s 5
f 6/8/17 9/12/19 14/17/36
s off
f 11/14/37 7/9/38 14/17/39
s 7
f 10/13/40 13/16/41 15/18/42
s 6
f 13/16/22 12/15/21 16/19/43
s 8
f 12/15/44 10/13/45 16/19/46
f 16/19/46 10/13/45 17/20/47
s off
f 17/20/48 10/13/49 15/18/50
s 9
f 14/17/51 9/12/52 18/21/53
s 10
f 9/12/54 11/14/55 19/22/56
s 11
f 11/14/57 14/17/58 19/22/59
f 19/22/59 14/17/58 18/21/60
s 7
f 15/18/42 13/16/41 16/19/61
s 9
f 18/21/53 9/12/52 20/23/62
s 10
f 9/12/54 19/22/56 20/23/63
s 12
f 15/18/64 16/19/65 21/24/66
f 21/24/66 16/19/65 22/25/67
s 13
f 16/19/68 17/20/69 22/25/70
s 14
f 18/21/71 20/23/72 24/26/73
f 24/26/73 20/23/72 23/27/74
s 15
f 19/22/75 18/21/76 24/26/77
s 13
f 22/25/70 17/20/69 21/24/78
s 15
f 19/22/75 24/26/77 23/27/79
s 16
f 15/18/80 21/24/81 25/28/82
s 17
f 17/20/83 28/31/84 21/24/85
f 21/24/85 28/31/84 25/28/86
s off
f 17/20/87 15/18/88 28/31/89
s 18
f 23/27/90 20/23/91 26/29/92
s off
f 20/23/93 19/22/94 27/30/95
s 19
f 19/22/96 23/27/97 27/30/98
f 27/30/98 23/27/97 26/29/99
s 16
f 25/28/82 29/32/100 15/18/80
f 15/18/80 29/32/100 28/31/101
s 17
f 25/28/86 28/31/84 29/32/102
s 18
f 26/29/92 20/23/91 30/33/103
f 30/33/103 20/23/91 27/30/104
s 19
f 26/29/99 30/33/105 27/30/98
s 20
f 31/34/106 33/36/107 32/35/108
s 21
f 37/45/109 38/38/110 35/47/111
f 35/47/111 36/48/112 34/46/113
s 20
f 32/44/108 34/46/114 31/43/106
f 35/47/115 33/42/107 37/45/116
f 33/42/107 31/43/106 37/45/116
f 37/45/116 31/43/106 34/46/114
f 34/46/114 32/44/108 35/47/115
f 32/44/108 33/42/107 35/47/115
s 21
f 35/40/111 38/41/110 36/49/112
s off
f 38/38/117 34/46/118 39/51/119
s 21
f 34/46/113 36/48/112 39/51/120
s off
f 37/50/121 34/39/122 40/52/123
f 34/39/124 38/37/125 40/52/126
f 38/37/127 37/50/128 40/52/129
f 36/48/130 38/38/131 39/51/132
s 22
f 45/63/133 42/55/134 44/56/135
s off
f 44/58/136 42/59/137 43/57/138
s 22
f 45/63/133 44/56/135 41/61/139
s off
f 41/53/140 43/62/141 45/63/142
f 45/63/143 43/62/144 46/54/145
f 42/55/146 46/54/147 43/62/148
f 42/55/149 45/63/150 46/54/151
f 41/53/152 44/58/153 47/60/154
f 44/58/155 43/62/156 47/60/157
f 43/62/158 41/53/159 47/60/160
