# This file uses centimeters as units for non-parametric coordinates.

mtllib ball_gun3.mtl
g default
v 0.113414 0.036851 -0.227127
v -0.113414 0.036850 -0.227127
v 0.000000 -0.119251 -0.227127
v -0.036850 0.113414 2.493044
v -0.113414 -0.036850 2.493044
v 0.113414 0.036851 2.493044
v -0.090639 0.029450 0.231540
v 0.090639 0.029450 0.231540
v 0.000000 0.182036 -0.303789
v -0.173126 0.056252 -0.303789
v -0.106998 -0.147270 -0.303789
v 0.147270 0.106998 -0.303789
v 0.198089 -0.816563 -2.693550
v 0.198087 0.205298 -2.693550
v -0.198085 0.205298 -2.693550
v 0.198087 -0.208446 -1.895617
v -0.198085 -0.208446 -1.895617
v -0.198087 -0.816563 -2.176254
v -0.198087 -0.816563 -2.693550
v 0.198089 -0.816563 -2.176254
vt 0.217423 0.168836
vt 0.174405 0.168836
vt 0.195914 0.198441
vt 0.177821 0.198441
vt 0.192295 0.198441
vt 0.203151 0.198441
vt 0.214007 0.198441
vt 0.177821 0.252857
vt 0.186867 0.252857
vt 0.195914 0.252857
vt 0.214007 0.252857
vt 0.217423 0.282326
vt 0.174405 0.268348
vt 0.188925 0.296846
vt 0.174405 0.282326
vt 0.217423 0.282326
vt 0.195914 0.153208
vt 0.174405 0.168836
vt 0.182620 0.194122
vt 0.214211 0.162531
vt 0.209208 0.194122
vt 0.209208 0.157528
vt 0.182620 0.157528
vt 0.209208 0.194122
vt 0.182620 0.194122
vt 0.182620 0.194122
vt 0.182620 0.194122
vt 0.209208 0.194122
vn 0.901947 -0.428215 0.055893
vn 0.827912 0.560691 0.013678
vn -0.301591 0.953412 0.006956
vn -0.818622 0.572712 0.043106
vn -0.476466 -0.876625 0.067142
vn 0.034372 -0.999087 -0.025357
vn 0.000000 -0.000000 -1.000000
vn 0.000000 -0.000000 -1.000000
vn 0.000000 -0.000000 -1.000000
vn -0.891882 0.452206 0.007502
vn 0.304640 -0.952461 0.003520
vn -0.571704 0.278905 0.771600
vn 0.512524 0.019491 0.858451
vn 0.468231 0.883602 -0.002680
vn -0.020556 0.542742 0.839648
vn 0.845654 0.259154 0.466592
vn -0.735787 0.239072 0.633610
vn -0.200648 -0.889618 0.410268
vn 0.968373 -0.237039 0.077886
vn -0.230165 -0.962573 0.143097
vn 0.960457 0.278114 -0.013222
vn -0.964337 -0.260609 0.046220
vn -0.404654 0.898205 0.171709
vn -0.956881 0.289126 0.028026
vn 0.016982 0.999365 -0.031327
vn 0.846876 0.472100 0.244793
vn 0.000000 -1.000000 0.000000
vn 0.000000 -1.000000 0.000000
vn 0.000000 -1.000000 0.000000
vn 0.000000 -1.000000 0.000000
vn 1.000000 0.000002 0.000001
vn -1.000000 0.000002 0.000001
vn -1.000000 0.000002 0.000000
vn 0.000000 -0.419019 0.907978
vn 0.000000 -0.419019 0.907978
vn 0.000000 -0.419019 0.907978
vn 0.000000 -0.419019 0.907978
vn 0.000000 -0.000000 -1.000000
vn 1.000000 0.000003 -0.000000
s 1
g pCylinder6
usemtl lambert2SG
f 6/8/1 1/4/2 4/9/3
f 1/4/2 2/5/4 4/9/3
f 4/9/3 2/5/4 5/10/5
f 2/5/4 3/6/6 5/10/5
f 5/10/5 3/6/6 6/11/1
f 3/6/6 1/7/2 6/11/1
s 2
f 14/22/7 13/21/8 15/23/9
s 3
f 6/12/10 4/14/11 8/16/12
f 8/16/12 4/14/11 7/15/13
f 4/14/11 5/13/14 7/15/13
f 7/15/13 5/13/14 8/16/12
f 5/13/14 6/12/10 8/16/12
s 1
f 2/2/4 1/1/2 9/17/15
f 9/17/15 1/1/2 12/20/16
f 10/18/17 2/2/4 9/17/15
f 11/19/18 2/2/4 10/18/17
f 3/3/6 2/2/4 11/19/18
f 12/20/16 3/3/6 11/19/18
f 1/1/2 3/3/6 12/20/16
s 4
f 12/20/19 11/19/20 16/24/21
f 16/24/21 11/19/20 17/25/22
f 17/25/22 11/19/20 15/23/23
f 11/19/20 10/18/24 15/23/23
f 10/18/24 9/17/25 15/23/23
f 15/23/23 9/17/25 16/24/21
f 9/17/25 12/20/19 16/24/21
f 15/23/23 16/24/21 14/22/26
s 5
f 20/28/27 18/26/28 13/21/29
f 13/21/29 18/26/28 19/27/30
s 4
f 14/22/26 16/24/21 13/21/31
f 17/25/22 15/23/23 18/26/32
f 18/26/32 15/23/23 19/27/33
s 6
f 16/24/34 17/25/35 20/28/36
f 20/28/36 17/25/35 18/26/37
s 2
f 19/27/38 15/23/9 13/21/8
s 4
f 16/24/21 20/28/39 13/21/31
